<!DOCTYPE svg PUBLIC "-//W3C//DTD SVG 1.1//EN" "http://www.w3.org/Graphics/SVG/1.1/DTD/svg11.dtd">
<!-- Uploaded to: SVG Repo, www.svgrepo.com, Transformed by: SVG Repo Mixer Tools -->
<svg width="800px" height="800px" viewBox="0 0 16 16" xmlns="http://www.w3.org/2000/svg" fill="#000000" transform="matrix(-1, 0, 0, 1, 0, 0)">
<g id="SVGRepo_bgCarrier" stroke-width="0"/>
<g id="SVGRepo_tracerCarrier" stroke-linecap="round" stroke-linejoin="round"/>
<g id="SVGRepo_iconCarrier"> <path d="m 10.996094 2 c -0.554688 0 -1 0.445312 -1 1 v 3 c 0 0.554688 0.445312 1 1 1 h 0.710937 c -0.671875 2.265625 -2.445312 4.042969 -4.710937 4.710938 v -0.710938 c 0 -0.554688 -0.449219 -1 -1 -1 h -3 c -0.554688 0 -1 0.445312 -1 1 v 1.5 c 0 1.378906 1.117187 2.5 2.5 2.5 h 0.5 c 5.503906 0 10 -4.496094 10 -10 v -0.5 c 0 -1.378906 -1.121094 -2.5 -2.5 -2.5 z m 0 0" fill="#34C436"/> </g>
</svg>